<?xml version="1.0" standalone="no"?>
<!DOCTYPE svg PUBLIC "-//W3C//DTD SVG 20010904//EN"
 "http://www.w3.org/TR/2001/REC-SVG-20010904/DTD/svg10.dtd">
<svg version="1.0" xmlns="http://www.w3.org/2000/svg"
 width="96.000000pt" height="96.000000pt" viewBox="0 0 96.000000 96.000000"
 preserveAspectRatio="xMidYMid meet">
<metadata>
Created by potrace 1.14, written by Peter Selinger 2001-2017
</metadata>
<g transform="translate(0.000000,96.000000) scale(0.100000,-0.100000)"
fill="#000000" stroke="none">
<path d="M110 780 c-11 -11 -22 -30 -25 -42 -3 -13 -5 -139 -3 -280 3 -231 5
-259 21 -275 16 -17 46 -18 378 -18 l360 0 19 25 c18 23 20 44 20 253 l0 228
-25 24 c-24 25 -25 25 -220 25 l-195 0 -40 40 -40 40 -115 0 c-101 0 -117 -2
-135 -20z"/>
</g>
</svg>
